<svg width="429.0000396728516" height="84.62794651703037" viewBox="0 0 343.8947741986194 67.8394076153479" class="looka-1j8o68f"><defs id="SvgjsDefs1787"></defs><g id="SvgjsG1788" featurekey="xG21Y3-0" transform="matrix(0.827319932692929,0,0,0.827319932692929,-8.27319932692929,-8.274026192401571)" fill="#b35f3e"><circle xmlns="http://www.w3.org/2000/svg" stroke="#b35f3e" stroke-width="2" stroke-linecap="round" stroke-linejoin="round" stroke-miterlimit="10" cx="18" cy="18.001" r="3.001"></circle><circle xmlns="http://www.w3.org/2000/svg" stroke="#b35f3e" stroke-width="2" stroke-linecap="round" stroke-linejoin="round" stroke-miterlimit="10" cx="31.5" cy="18.001" r="5.5"></circle><circle xmlns="http://www.w3.org/2000/svg" stroke="#b35f3e" stroke-width="2" stroke-linecap="round" stroke-linejoin="round" stroke-miterlimit="10" cx="50" cy="18.001" r="8"></circle><circle xmlns="http://www.w3.org/2000/svg" stroke="#b35f3e" stroke-width="2" stroke-linecap="round" stroke-linejoin="round" stroke-miterlimit="10" cx="68.499" cy="18.001" r="5.501"></circle><circle xmlns="http://www.w3.org/2000/svg" stroke="#b35f3e" stroke-width="2" stroke-linecap="round" stroke-linejoin="round" stroke-miterlimit="10" cx="82" cy="18.001" r="3"></circle><circle xmlns="http://www.w3.org/2000/svg" stroke="#b35f3e" stroke-width="2" stroke-linecap="round" stroke-linejoin="round" stroke-miterlimit="10" cx="18" cy="31.501" r="5.5"></circle><circle xmlns="http://www.w3.org/2000/svg" stroke="#b35f3e" stroke-width="2" stroke-linecap="round" stroke-linejoin="round" stroke-miterlimit="10" cx="33.999" cy="34" r="3"></circle><circle xmlns="http://www.w3.org/2000/svg" stroke="#b35f3e" stroke-width="2" stroke-linecap="round" stroke-linejoin="round" stroke-miterlimit="10" cx="50" cy="36.501" r="5.5"></circle><circle xmlns="http://www.w3.org/2000/svg" stroke="#b35f3e" stroke-width="2" stroke-linecap="round" stroke-linejoin="round" stroke-miterlimit="10" cx="65.999" cy="34" r="3.001"></circle><circle xmlns="http://www.w3.org/2000/svg" stroke="#b35f3e" stroke-width="2" stroke-linecap="round" stroke-linejoin="round" stroke-miterlimit="10" cx="82" cy="31.501" r="5.501"></circle><circle xmlns="http://www.w3.org/2000/svg" stroke="#b35f3e" stroke-width="2" stroke-linecap="round" stroke-linejoin="round" stroke-miterlimit="10" cx="18" cy="50.001" r="8"></circle><circle xmlns="http://www.w3.org/2000/svg" stroke="#b35f3e" stroke-width="2" stroke-linecap="round" stroke-linejoin="round" stroke-miterlimit="10" cx="36.499" cy="50.001" r="5.5"></circle><circle xmlns="http://www.w3.org/2000/svg" stroke="#b35f3e" stroke-width="2" stroke-linecap="round" stroke-linejoin="round" stroke-miterlimit="10" cx="50" cy="49.999" r="3"></circle><circle xmlns="http://www.w3.org/2000/svg" stroke="#b35f3e" stroke-width="2" stroke-linecap="round" stroke-linejoin="round" stroke-miterlimit="10" cx="63.5" cy="50.001" r="5.5"></circle><circle xmlns="http://www.w3.org/2000/svg" stroke="#b35f3e" stroke-width="2" stroke-linecap="round" stroke-linejoin="round" stroke-miterlimit="10" cx="82" cy="50.001" r="8"></circle><circle xmlns="http://www.w3.org/2000/svg" stroke="#b35f3e" stroke-width="2" stroke-linecap="round" stroke-linejoin="round" stroke-miterlimit="10" cx="18" cy="68.501" r="5.5"></circle><circle xmlns="http://www.w3.org/2000/svg" stroke="#b35f3e" stroke-width="2" stroke-linecap="round" stroke-linejoin="round" stroke-miterlimit="10" cx="33.999" cy="66" r="3"></circle><path xmlns="http://www.w3.org/2000/svg" stroke="#b35f3e" stroke-width="2" stroke-linecap="round" stroke-linejoin="round" stroke-miterlimit="10" d="M55.5,63.502  C55.5,66.537,53.037,69,50,69c-3.036,0-5.502-2.463-5.502-5.498C44.498,60.462,46.964,58,50,58C53.037,58,55.5,60.462,55.5,63.502z"></path><circle xmlns="http://www.w3.org/2000/svg" stroke="#b35f3e" stroke-width="2" stroke-linecap="round" stroke-linejoin="round" stroke-miterlimit="10" cx="65.999" cy="66" r="3.001"></circle><circle xmlns="http://www.w3.org/2000/svg" stroke="#b35f3e" stroke-width="2" stroke-linecap="round" stroke-linejoin="round" stroke-miterlimit="10" cx="82" cy="68.501" r="5.501"></circle><circle xmlns="http://www.w3.org/2000/svg" stroke="#b35f3e" stroke-width="2" stroke-linecap="round" stroke-linejoin="round" stroke-miterlimit="10" cx="18" cy="82" r="3.001"></circle><circle xmlns="http://www.w3.org/2000/svg" stroke="#b35f3e" stroke-width="2" stroke-linecap="round" stroke-linejoin="round" stroke-miterlimit="10" cx="31.5" cy="82" r="5.5"></circle><circle xmlns="http://www.w3.org/2000/svg" stroke="#b35f3e" stroke-width="2" stroke-linecap="round" stroke-linejoin="round" stroke-miterlimit="10" cx="50" cy="82" r="8"></circle><circle xmlns="http://www.w3.org/2000/svg" stroke="#b35f3e" stroke-width="2" stroke-linecap="round" stroke-linejoin="round" stroke-miterlimit="10" cx="68.499" cy="82" r="5.501"></circle><circle xmlns="http://www.w3.org/2000/svg" stroke="#b35f3e" stroke-width="2" stroke-linecap="round" stroke-linejoin="round" stroke-miterlimit="10" cx="82" cy="82" r="3"></circle></g><g id="SvgjsG1789" featurekey="nameLeftFeature-0" transform="matrix(1.8504914039443283,0,0,1.8504914039443283,83.34250928350104,9.121050693389492)" fill="#111111"><path d="M17.354 20 l-2.3145 0 l-0.91797 -10.996 l-3.9941 10.996 l-1.4648 0 l-3.9746 -10.977 l-0.92773 10.977 l-2.3242 0 l1.1133 -13.926 l3.252 0 l3.584 9.8438 l3.6133 -9.8438 l3.252 0 z M26.8456625 20.18555 c-4.0039 0 -7.0313 -2.7441 -7.0313 -7.1582 c0 -4.4043 3.0273 -7.1484 7.0313 -7.1484 c3.9941 0 7.0215 2.7441 7.0215 7.1484 c0 4.4141 -3.0273 7.1582 -7.0215 7.1582 z M26.8456625 18.0176 c2.6367 0 4.6973 -1.8262 4.6973 -4.9902 c0 -3.1348 -2.0605 -4.9707 -4.6973 -4.9707 s-4.6973 1.8359 -4.6973 4.9707 c0 3.1641 2.0605 4.9902 4.6973 4.9902 z M45.61534375 6.074 l2.4805 0 l-5.1367 13.926 l-2.5098 0 l-5.1074 -13.926 l2.4707 0 l3.9063 11.123 z M50.52735625 20 l0 -13.926 l2.334 0 l0 13.926 l-2.334 0 z M64.619115625 8.154 l-5.4102 0 l0 3.8574 l4.7852 0 l0 2.0605 l-4.7852 0 l0 3.8379 l5.4102 0 l0 2.0898 l-7.7734 0 l0 -13.926 l7.7734 0 l0 2.0801 z"></path></g><g id="SvgjsG1790" featurekey="nameRightFeature-0" transform="matrix(1.8760886030125186,0,0,1.8760886030125186,208.57482540104093,8.95171433136664)" fill="#111111"><path d="M10.146 8.467 l-5.3711 0 l0 3.2031 l4.6387 0 l0 2.5488 l-4.6387 0 l0 5.7813 l-2.9492 0 l0 -14.111 l8.3203 0 l0 2.5781 z M12.6465125 20 l0 -14.111 l2.9297 0 l0 14.111 l-2.9297 0 z M28.857578125 5.888999999999999 l2.9199 0 l0 14.111 l-3.3887 0 l-6.25 -10.088 l0 10.088 l-2.9199 0 l0 -14.111 l3.3496 0 l6.2891 10.029 l0 -10.029 z M35.429715625 20 l0 -14.111 l5.1074 0 c4.502 0 6.7285 2.832 6.7285 7.0508 c0 4.2285 -2.2266 7.0605 -6.7285 7.0605 l-5.1074 0 z M38.359415625 17.4121 l2.0313 0 c2.5977 0 3.7891 -1.6211 3.7891 -4.4727 s-1.1914 -4.4727 -3.7891 -4.4727 l-2.0313 0 l0 8.9453 z M58.19359375 8.467 l-5.2344 0 l0 3.2031 l4.6387 0 l0 2.5488 l-4.6387 0 l0 3.1934 l5.2344 0 l0 2.5879 l-8.1836 0 l0 -14.111 l8.1836 0 l0 2.5781 z M68.662065625 20 l-3.6719 -6.2109 l-0.84961 0 l0 6.2109 l-2.9297 0 l0 -14.111 l5.1172 0 c3.1934 0 4.541 1.8848 4.541 4.2188 c0 1.8945 -1.0742 3.125 -2.9883 3.5352 l4.248 6.3574 l-3.4668 0 z M64.140665625 8.32 l0 3.3691 l1.7285 0 c1.5625 0 2.1973 -0.66406 2.1973 -1.6797 c0 -1.0059 -0.63477 -1.6895 -2.1973 -1.6895 l-1.7285 0 z"></path></g></svg>